{
  "asset": { "version": "2.0", "generator": "Proyecto VR" },
  "scene": 0,
  "scenes": [{ "nodes": [0] }],
  "nodes": [{ "mesh": 0, "name": "Modelo de prueba" }],
  "meshes": [{ "name": "Triangulo interactivo", "primitives": [{ "attributes": { "POSITION": 0 }, "indices": 1, "material": 0 }] }],
  "materials": [{ "name": "Azul VR", "pbrMetallicRoughness": { "baseColorFactor": [0.16, 0.72, 1.0, 1.0], "metallicFactor": 0.15, "roughnessFactor": 0.35 } }],
  "buffers": [{ "uri": "data:application/octet-stream;base64,", "byteLength": 36 }, { "uri": "data:application/octet-stream;base64,", "byteLength": 6 }],
  "bufferViews": [{ "buffer": 0, "byteOffset": 0, "byteLength": 36, "target": 34962 }, { "buffer": 1, "byteOffset": 0, "byteLength": 6, "target": 34963 }],
  "accessors": [{ "bufferView": 0, "componentType": 5126, "count": 3, "type": "VEC3", "min": [0, 0, 0], "max": [1, 1, 0] }, { "bufferView": 1, "componentType": 5123, "count": 3, "type": "SCALAR" }]
}